<svg xmlns="http://www.w3.org/2000/svg" xmlns:xlink="http://www.w3.org/1999/xlink" width="500" zoomAndPan="magnify" viewBox="0 0 375 374.999991" height="500" preserveAspectRatio="xMidYMid meet" version="1.0"><defs><clipPath id="b1e85f0582"><path d="M 175 87.042969 L 200 87.042969 L 200 244 L 175 244 Z M 175 87.042969 " clip-rule="nonzero"/></clipPath><clipPath id="3e32f74344"><path d="M 155.355469 231 L 219.855469 231 L 219.855469 287.949219 L 155.355469 287.949219 Z M 155.355469 231 " clip-rule="nonzero"/></clipPath></defs><g clip-path="url(#b1e85f0582)"><path fill="#000000" d="M 199.230469 99.25 C 199.230469 92.746094 193.964844 87.472656 187.460938 87.472656 C 180.957031 87.472656 175.691406 92.746094 175.691406 99.25 L 175.691406 232 C 175.691406 238.496094 180.957031 243.769531 187.460938 243.769531 C 193.964844 243.769531 199.230469 238.496094 199.230469 232 L 199.230469 99.25 " fill-opacity="1" fill-rule="nonzero"/></g><g clip-path="url(#3e32f74344)"><path fill="#000000" d="M 187.460938 287.519531 L 155.332031 231.871094 L 219.589844 231.871094 L 187.460938 287.519531 L 155.332031 231.871094 L 219.589844 231.871094 L 187.460938 287.519531 " fill-opacity="1" fill-rule="nonzero"/></g></svg>